<svg width="315" height="76" viewBox="0 0 315 76" fill="none" xmlns="http://www.w3.org/2000/svg">
<path d="M310.301 0.5H4.64667C2.93578 0.5 1.54883 1.84315 1.54883 3.5V72.5C1.54883 74.1569 2.93578 75.5 4.64667 75.5H310.301C312.011 75.5 313.398 74.1569 313.398 72.5V3.5C313.398 1.84315 312.011 0.5 310.301 0.5Z" fill="#FAFAFA" stroke="#D6D6D6"/>
<path d="M244.319 53.8751V48.9121H245.076V49.6645C245.269 49.3124 245.446 49.0803 245.608 48.9682C245.774 48.856 245.954 48.7999 246.151 48.7999C246.434 48.7999 246.722 48.8903 247.015 49.071L246.725 49.8514C246.52 49.7299 246.314 49.6692 246.108 49.6692C245.925 49.6692 245.76 49.7252 245.613 49.8374C245.467 49.9464 245.362 50.0991 245.3 50.2954C245.206 50.5945 245.16 50.9216 245.16 51.2768V53.8751H244.319ZM250.913 52.2769L251.782 52.3843C251.645 52.8922 251.391 53.2863 251.02 53.5667C250.649 53.8471 250.176 53.9873 249.599 53.9873C248.873 53.9873 248.297 53.7645 247.87 53.319C247.447 52.8704 247.235 52.2426 247.235 51.4357C247.235 50.6007 247.45 49.9527 247.88 49.4916C248.31 49.0305 248.867 48.7999 249.553 48.7999C250.216 48.7999 250.758 49.0258 251.179 49.4776C251.6 49.9293 251.81 50.5649 251.81 51.3843C251.81 51.4341 251.808 51.5089 251.805 51.6086H248.104C248.135 52.1538 248.289 52.5713 248.567 52.861C248.844 53.1508 249.19 53.2956 249.604 53.2956C249.913 53.2956 250.176 53.2146 250.394 53.0526C250.612 52.8906 250.785 52.632 250.913 52.2769ZM248.151 50.9169H250.922C250.885 50.4994 250.779 50.1863 250.604 49.9776C250.336 49.6536 249.989 49.4916 249.562 49.4916C249.176 49.4916 248.85 49.6209 248.585 49.8795C248.324 50.138 248.179 50.4839 248.151 50.9169ZM257.838 51.473L258.745 51.702C258.555 52.4467 258.212 53.0152 257.717 53.4078C257.225 53.7972 256.622 53.992 255.908 53.992C255.17 53.992 254.569 53.8424 254.104 53.5433C253.643 53.2411 253.291 52.8049 253.048 52.2348C252.808 51.6647 252.688 51.0525 252.688 50.3982C252.688 49.6847 252.824 49.0632 253.095 48.5335C253.369 48.0008 253.757 47.5973 254.259 47.3232C254.763 47.0459 255.318 46.9072 255.922 46.9072C256.608 46.9072 257.184 47.0817 257.651 47.4306C258.119 47.7796 258.444 48.2703 258.628 48.9027L257.736 49.113C257.577 48.6145 257.346 48.2516 257.044 48.0242C256.742 47.7967 256.362 47.683 255.904 47.683C255.377 47.683 254.936 47.8092 254.581 48.0615C254.229 48.3139 253.981 48.6535 253.838 49.0803C253.695 49.504 253.623 49.9418 253.623 50.3935C253.623 50.9761 253.707 51.4855 253.875 51.9217C254.047 52.3547 254.312 52.6788 254.67 52.8937C255.028 53.1087 255.416 53.2162 255.834 53.2162C256.341 53.2162 256.771 53.0698 257.123 52.7769C257.475 52.484 257.714 52.0494 257.838 51.473ZM259.114 53.8751L261.745 47.0241H262.722L265.526 53.8751H264.493L263.694 51.8002H260.829L260.077 53.8751H259.114ZM261.091 51.0618H263.414L262.699 49.1644C262.481 48.5881 262.319 48.1145 262.213 47.7438C262.125 48.183 262.002 48.6192 261.843 49.0523L261.091 51.0618ZM266.25 53.8751V47.0241H268.835C269.29 47.0241 269.637 47.0459 269.877 47.0895C270.213 47.1456 270.495 47.2531 270.723 47.412C270.95 47.5677 271.132 47.7874 271.269 48.0709C271.41 48.3544 271.48 48.666 271.48 49.0055C271.48 49.5882 271.294 50.082 270.924 50.487C270.553 50.8889 269.883 51.0898 268.914 51.0898H267.157V53.8751H266.25ZM267.157 50.2814H268.928C269.514 50.2814 269.93 50.1723 270.176 49.9542C270.422 49.7361 270.545 49.4293 270.545 49.0336C270.545 48.747 270.472 48.5024 270.325 48.2999C270.182 48.0943 269.992 47.9587 269.755 47.8933C269.603 47.8528 269.321 47.8326 268.909 47.8326H267.157V50.2814ZM274.377 53.8751V47.8326H272.12V47.0241H277.55V47.8326H275.284V53.8751H274.377ZM283.373 51.473L284.28 51.702C284.09 52.4467 283.747 53.0152 283.252 53.4078C282.76 53.7972 282.157 53.992 281.443 53.992C280.705 53.992 280.104 53.8424 279.639 53.5433C279.178 53.2411 278.826 52.8049 278.583 52.2348C278.343 51.6647 278.223 51.0525 278.223 50.3982C278.223 49.6847 278.359 49.0632 278.63 48.5335C278.904 48.0008 279.292 47.5973 279.794 47.3232C280.298 47.0459 280.853 46.9072 281.457 46.9072C282.143 46.9072 282.719 47.0817 283.186 47.4306C283.654 47.7796 283.979 48.2703 284.163 48.9027L283.27 49.113C283.112 48.6145 282.881 48.2516 282.579 48.0242C282.277 47.7967 281.897 47.683 281.439 47.683C280.912 47.683 280.471 47.8092 280.116 48.0615C279.764 48.3139 279.516 48.6535 279.373 49.0803C279.23 49.504 279.158 49.9418 279.158 50.3935C279.158 50.9761 279.242 51.4855 279.41 51.9217C279.582 52.3547 279.847 52.6788 280.205 52.8937C280.563 53.1087 280.951 53.2162 281.368 53.2162C281.876 53.2162 282.306 53.0698 282.658 52.7769C283.01 52.484 283.249 52.0494 283.373 51.473ZM285.43 53.8751V47.0241H286.336V49.8374H289.897V47.0241H290.804V53.8751H289.897V50.6459H286.336V53.8751H285.43ZM291.566 53.8751L294.197 47.0241H295.173L297.977 53.8751H296.945L296.145 51.8002H293.281L292.528 53.8751H291.566ZM293.542 51.0618H295.865L295.15 49.1644C294.932 48.5881 294.77 48.1145 294.664 47.7438C294.577 48.183 294.454 48.6192 294.295 49.0523L293.542 51.0618Z" fill="#A5A5A5"/>
<path d="M244.325 64.8329V59.0023H246.525C246.912 59.0023 247.208 59.0208 247.412 59.0579C247.698 59.1057 247.938 59.1972 248.132 59.3324C248.325 59.465 248.48 59.6519 248.597 59.8932C248.716 60.1345 248.776 60.3996 248.776 60.6886C248.776 61.1845 248.618 61.6047 248.303 61.9494C247.987 62.2915 247.417 62.4625 246.592 62.4625H245.097V64.8329H244.325ZM245.097 61.7744H246.604C247.103 61.7744 247.457 61.6816 247.666 61.496C247.876 61.3104 247.981 61.0492 247.981 60.7125C247.981 60.4686 247.918 60.2604 247.794 60.0881C247.672 59.9131 247.51 59.7977 247.308 59.742C247.178 59.7076 246.938 59.6903 246.588 59.6903H245.097V61.7744ZM249.659 64.8329V60.6091H250.303V61.2494C250.468 60.9498 250.619 60.7523 250.757 60.6568C250.897 60.5614 251.051 60.5136 251.218 60.5136C251.459 60.5136 251.705 60.5905 251.954 60.7443L251.707 61.4085C251.532 61.3051 251.357 61.2534 251.182 61.2534C251.026 61.2534 250.885 61.3011 250.761 61.3966C250.636 61.4894 250.547 61.6193 250.494 61.7864C250.415 62.0409 250.375 62.3193 250.375 62.6216V64.8329H249.659ZM252.383 59.8256V59.0023H253.099V59.8256H252.383ZM252.383 64.8329V60.6091H253.099V64.8329H252.383ZM255.366 64.8329L253.76 60.6091H254.515L255.422 63.1386C255.52 63.4117 255.61 63.6954 255.692 63.9898C255.756 63.767 255.845 63.4992 255.959 63.1864L256.898 60.6091H257.633L256.035 64.8329H255.366ZM261.022 64.3119C260.757 64.5373 260.501 64.6964 260.254 64.7892C260.01 64.882 259.748 64.9284 259.467 64.9284C259.003 64.9284 258.646 64.8157 258.397 64.5903C258.148 64.3623 258.023 64.072 258.023 63.7193C258.023 63.5125 258.07 63.3242 258.162 63.1545C258.258 62.9822 258.381 62.8443 258.532 62.7409C258.686 62.6375 258.858 62.5593 259.049 62.5062C259.19 62.4691 259.402 62.4333 259.686 62.3989C260.264 62.3299 260.689 62.2477 260.962 62.1523C260.965 62.0542 260.966 61.9918 260.966 61.9653C260.966 61.6737 260.899 61.4682 260.763 61.3489C260.581 61.1871 260.309 61.1062 259.948 61.1062C259.611 61.1062 259.362 61.1659 259.2 61.2852C259.041 61.4019 258.923 61.61 258.846 61.9097L258.146 61.8142C258.21 61.5146 258.315 61.2733 258.461 61.0903C258.606 60.9047 258.817 60.7629 259.093 60.6648C259.369 60.564 259.688 60.5136 260.052 60.5136C260.412 60.5136 260.705 60.5561 260.931 60.6409C261.156 60.7257 261.322 60.8331 261.428 60.9631C261.534 61.0903 261.608 61.2521 261.65 61.4483C261.674 61.5703 261.686 61.7903 261.686 62.1085V63.0631C261.686 63.7286 261.701 64.1502 261.73 64.3278C261.762 64.5028 261.823 64.6712 261.913 64.8329H261.165C261.091 64.6845 261.043 64.5108 261.022 64.3119ZM260.962 62.7131C260.703 62.8191 260.313 62.9093 259.793 62.9835C259.499 63.0259 259.291 63.0737 259.169 63.1267C259.047 63.1797 258.953 63.2579 258.886 63.3614C258.82 63.4621 258.787 63.5748 258.787 63.6994C258.787 63.8903 258.858 64.0494 259.002 64.1767C259.147 64.304 259.36 64.3676 259.638 64.3676C259.914 64.3676 260.159 64.3079 260.374 64.1886C260.588 64.0667 260.746 63.9009 260.847 63.6915C260.924 63.5297 260.962 63.2911 260.962 62.9756V62.7131ZM265.556 63.2858L266.26 63.3773C266.183 63.8625 265.986 64.243 265.667 64.5187C265.352 64.7918 264.963 64.9284 264.502 64.9284C263.924 64.9284 263.459 64.7401 263.106 64.3636C262.756 63.9845 262.581 63.4422 262.581 62.7369C262.581 62.2809 262.657 61.8818 262.808 61.5398C262.959 61.1977 263.188 60.9418 263.496 60.7722C263.806 60.5998 264.143 60.5136 264.506 60.5136C264.965 60.5136 265.34 60.6303 265.632 60.8636C265.923 61.0943 266.11 61.4231 266.192 61.85L265.496 61.9574C265.43 61.6737 265.312 61.4602 265.142 61.317C264.975 61.1739 264.773 61.1023 264.534 61.1023C264.173 61.1023 263.88 61.2322 263.655 61.492C263.43 61.7492 263.317 62.1576 263.317 62.717C263.317 63.2845 263.426 63.6968 263.643 63.954C263.86 64.2112 264.144 64.3398 264.494 64.3398C264.775 64.3398 265.01 64.2536 265.198 64.0812C265.386 63.9089 265.506 63.6437 265.556 63.2858ZM266.841 66.4597L266.761 65.7875C266.918 65.8299 267.054 65.8511 267.171 65.8511C267.33 65.8511 267.457 65.8246 267.553 65.7716C267.648 65.7186 267.726 65.6443 267.787 65.5489C267.832 65.4773 267.905 65.2996 268.006 65.0159C268.019 64.9761 268.041 64.9178 268.07 64.8409L266.467 60.6091H267.238L268.117 63.0551C268.231 63.3653 268.334 63.6915 268.424 64.0335C268.506 63.7047 268.604 63.3839 268.718 63.071L269.621 60.6091H270.337L268.73 64.9045C268.558 65.3686 268.424 65.6881 268.328 65.8631C268.201 66.099 268.055 66.2714 267.891 66.3801C267.726 66.4915 267.53 66.5472 267.302 66.5472C267.164 66.5472 267.01 66.518 266.841 66.4597ZM272.934 63.0829V62.3631H275.133V63.0829H272.934ZM279.616 64.8329V59.6903H277.695V59.0023H282.316V59.6903H280.387V64.8329H279.616ZM285.005 63.4727L285.745 63.5642C285.628 63.9964 285.412 64.3318 285.096 64.5704C284.781 64.8091 284.378 64.9284 283.887 64.9284C283.27 64.9284 282.779 64.7388 282.416 64.3597C282.055 63.9778 281.875 63.4436 281.875 62.7568C281.875 62.0462 282.058 61.4947 282.424 61.1023C282.79 60.7098 283.264 60.5136 283.848 60.5136C284.412 60.5136 284.874 60.7059 285.232 61.0903C285.59 61.4748 285.769 62.0157 285.769 62.7131C285.769 62.7555 285.767 62.8191 285.765 62.904H282.615C282.641 63.368 282.772 63.7233 283.008 63.9699C283.244 64.2165 283.539 64.3398 283.891 64.3398C284.154 64.3398 284.378 64.2708 284.563 64.1329C284.749 63.9951 284.896 63.775 285.005 63.4727ZM282.654 62.3153H285.013C284.981 61.96 284.891 61.6936 284.742 61.5159C284.514 61.2401 284.219 61.1023 283.856 61.1023C283.527 61.1023 283.25 61.2123 283.024 61.4324C282.802 61.6525 282.678 61.9468 282.654 62.3153ZM286.64 64.8329V60.6091H287.284V61.2494C287.448 60.9498 287.599 60.7523 287.737 60.6568C287.878 60.5614 288.032 60.5136 288.199 60.5136C288.44 60.5136 288.685 60.5905 288.935 60.7443L288.688 61.4085C288.513 61.3051 288.338 61.2534 288.163 61.2534C288.006 61.2534 287.866 61.3011 287.741 61.3966C287.617 61.4894 287.528 61.6193 287.475 61.7864C287.395 62.0409 287.356 62.3193 287.356 62.6216V64.8329H286.64ZM289.36 64.8329V60.6091H290V61.2017C290.133 60.9949 290.309 60.8292 290.529 60.7045C290.749 60.5773 291 60.5136 291.281 60.5136C291.594 60.5136 291.85 60.5786 292.049 60.7085C292.25 60.8384 292.392 61.0201 292.474 61.2534C292.808 60.7602 293.243 60.5136 293.779 60.5136C294.198 60.5136 294.52 60.6303 294.745 60.8636C294.971 61.0943 295.083 61.4509 295.083 61.9335V64.8329H294.371V62.1722C294.371 61.8858 294.348 61.6803 294.3 61.5557C294.255 61.4284 294.171 61.3263 294.049 61.2494C293.927 61.1725 293.784 61.1341 293.62 61.1341C293.323 61.1341 293.076 61.2335 292.88 61.4324C292.684 61.6286 292.586 61.9441 292.586 62.379V64.8329H291.87V62.0886C291.87 61.7704 291.811 61.5318 291.695 61.3727C291.578 61.2136 291.387 61.1341 291.122 61.1341C290.921 61.1341 290.734 61.1871 290.561 61.2932C290.392 61.3992 290.268 61.5543 290.191 61.7585C290.114 61.9627 290.076 62.257 290.076 62.6415V64.8329H289.36ZM295.859 63.5722L296.567 63.4608C296.607 63.7445 296.717 63.9619 296.897 64.1131C297.08 64.2642 297.335 64.3398 297.661 64.3398C297.989 64.3398 298.233 64.2735 298.392 64.1409C298.552 64.0057 298.631 63.8479 298.631 63.6676C298.631 63.5059 298.561 63.3786 298.42 63.2858C298.322 63.2222 298.078 63.1413 297.688 63.0432C297.163 62.9106 296.799 62.7966 296.595 62.7011C296.393 62.603 296.239 62.4691 296.133 62.2994C296.03 62.1271 295.978 61.9375 295.978 61.7307C295.978 61.5424 296.021 61.3687 296.106 61.2097C296.193 61.0479 296.311 60.914 296.46 60.8079C296.571 60.7257 296.722 60.6568 296.913 60.6011C297.106 60.5428 297.313 60.5136 297.533 60.5136C297.865 60.5136 298.155 60.5614 298.404 60.6568C298.656 60.7523 298.842 60.8822 298.961 61.0466C299.081 61.2083 299.163 61.4257 299.208 61.6989L298.508 61.7943C298.476 61.5769 298.383 61.4072 298.229 61.2852C298.078 61.1632 297.863 61.1023 297.585 61.1023C297.256 61.1023 297.022 61.1566 296.881 61.2653C296.741 61.374 296.67 61.5013 296.67 61.6472C296.67 61.74 296.699 61.8235 296.758 61.8977C296.816 61.9746 296.908 62.0382 297.032 62.0886C297.104 62.1151 297.315 62.1761 297.665 62.2716C298.171 62.4068 298.524 62.5182 298.723 62.6057C298.924 62.6905 299.082 62.8151 299.196 62.9795C299.31 63.1439 299.367 63.3481 299.367 63.592C299.367 63.8307 299.297 64.0561 299.156 64.2682C299.018 64.4776 298.818 64.6407 298.556 64.7574C298.293 64.8714 297.996 64.9284 297.665 64.9284C297.116 64.9284 296.697 64.8144 296.408 64.5864C296.121 64.3583 295.938 64.0203 295.859 63.5722Z" fill="#A5A5A5"/>
<g filter="url(#filter0_d_8_21)">
<path d="M272.399 11C279.874 11 283.81 15.926 284.206 16.4467L287.062 13.612L287.222 25.7091L274.969 25.6108L278.924 21.6874C278.57 21.188 276.595 18.6553 272.616 18.2744C271.229 18.1416 269.982 18.436 268.924 18.9023L264.514 13.0418C266.474 11.9423 269.112 11 272.399 11Z" fill="black"/>
</g>
<path d="M272.399 11C279.874 11 283.81 15.926 284.206 16.4467L287.062 13.612L287.222 25.7091L274.969 25.6108L278.924 21.6874C278.57 21.188 276.595 18.6553 272.616 18.2744C271.229 18.1416 269.982 18.436 268.924 18.9023L264.514 13.0418C266.474 11.9423 269.112 11 272.399 11Z" fill="#2B4CB9"/>
<g filter="url(#filter1_d_8_21)">
<path d="M271.652 11.0408L271.55 22.907L267.546 19.12C267.093 19.415 264.398 21.3265 263.998 25.2437C263.893 26.2698 264.046 27.2166 264.338 28.0633L256.751 28.2791C256.583 27.4005 256.486 26.4584 256.486 25.4537C256.486 18.0949 261.743 14.2777 262.133 14.0042L259.16 11.1957L271.652 11.0408Z" fill="black"/>
</g>
<path d="M271.652 11.0408L271.55 22.907L267.546 19.12C267.093 19.415 264.398 21.3265 263.998 25.2437C263.893 26.2698 264.046 27.2166 264.338 28.0633L256.751 28.2791C256.583 27.4005 256.486 26.4584 256.486 25.4537C256.486 18.0949 261.743 14.2777 262.133 14.0042L259.16 11.1957L271.652 11.0408Z" fill="#5A96F6"/>
<g filter="url(#filter2_d_8_21)">
<path d="M256.542 26.1727L268.796 26.271L264.841 30.1944C265.194 30.6938 267.169 33.2265 271.148 33.6074C275.566 34.0303 278.563 30.1196 278.563 30.1196L283.41 35.4505C283.41 35.4505 279.257 40.8818 271.365 40.8818C263.89 40.8818 259.954 35.9558 259.559 35.4351L256.702 38.2698L256.542 26.1727Z" fill="black"/>
</g>
<path d="M256.542 26.1727L268.796 26.271L264.841 30.1944C265.194 30.6938 267.169 33.2265 271.148 33.6074C275.566 34.0303 278.563 30.1196 278.563 30.1196L283.41 35.4505C283.41 35.4505 279.257 40.8818 271.365 40.8818C263.89 40.8818 259.954 35.9558 259.559 35.4351L256.702 38.2698L256.542 26.1727Z" fill="#BEBEBE"/>
<path d="M57.292 42H55.9795V32.0469H57.292V42ZM59.5889 34.8496L58.8711 34.3574C59.2949 33.765 59.5137 33.1406 59.5273 32.4844V31.5H60.7783V32.3887C60.7738 32.8444 60.6598 33.3001 60.4365 33.7559C60.2178 34.207 59.9352 34.5716 59.5889 34.8496ZM63.3555 34.6035L63.3896 35.4238C63.932 34.7858 64.6634 34.4668 65.584 34.4668C66.6185 34.4668 67.3226 34.8633 67.6963 35.6562C67.9424 35.3008 68.2614 35.0137 68.6533 34.7949C69.0498 34.5762 69.5169 34.4668 70.0547 34.4668C71.6771 34.4668 72.502 35.3258 72.5293 37.0439V42H71.2646V37.1191C71.2646 36.5905 71.1439 36.1963 70.9023 35.9365C70.6608 35.6722 70.2552 35.54 69.6855 35.54C69.2161 35.54 68.8265 35.6813 68.5166 35.9639C68.2067 36.2419 68.0267 36.6178 67.9766 37.0918V42H66.7051V37.1533C66.7051 36.0778 66.1787 35.54 65.126 35.54C64.2965 35.54 63.7292 35.8932 63.4238 36.5996V42H62.1592V34.6035H63.3555ZM79.1123 34.6035L79.1533 35.5332C79.7184 34.8223 80.4567 34.4668 81.3682 34.4668C82.9313 34.4668 83.7197 35.3486 83.7334 37.1123V42H82.4688V37.1055C82.4642 36.5723 82.3411 36.1781 82.0996 35.9229C81.8626 35.6676 81.4912 35.54 80.9854 35.54C80.5752 35.54 80.2152 35.6494 79.9053 35.8682C79.5954 36.0869 79.3538 36.374 79.1807 36.7295V42H77.916V34.6035H79.1123ZM85.3057 38.2334C85.3057 37.5088 85.4469 36.8571 85.7295 36.2783C86.0166 35.6995 86.4131 35.2529 86.9189 34.9385C87.4294 34.624 88.0104 34.4668 88.6621 34.4668C89.6693 34.4668 90.4827 34.8154 91.1025 35.5127C91.7269 36.21 92.0391 37.1374 92.0391 38.2949V38.3838C92.0391 39.1038 91.9001 39.751 91.6221 40.3252C91.3486 40.8949 90.9544 41.3392 90.4395 41.6582C89.929 41.9772 89.3411 42.1367 88.6758 42.1367C87.6732 42.1367 86.8597 41.7881 86.2354 41.0908C85.6156 40.3936 85.3057 39.4707 85.3057 38.3223V38.2334ZM86.5771 38.3838C86.5771 39.2041 86.7663 39.8626 87.1445 40.3594C87.5273 40.8561 88.0378 41.1045 88.6758 41.1045C89.3184 41.1045 89.8288 40.8538 90.207 40.3525C90.5853 39.8467 90.7744 39.1403 90.7744 38.2334C90.7744 37.4222 90.5807 36.766 90.1934 36.2646C89.8105 35.7588 89.3001 35.5059 88.6621 35.5059C88.0378 35.5059 87.5342 35.7542 87.1514 36.251C86.7686 36.7477 86.5771 37.4587 86.5771 38.3838ZM95.3408 32.8125V34.6035H96.7217V35.5811H95.3408V40.168C95.3408 40.4642 95.4023 40.6875 95.5254 40.8379C95.6484 40.9837 95.8581 41.0566 96.1543 41.0566C96.3001 41.0566 96.5007 41.0293 96.7559 40.9746V42C96.4232 42.0911 96.0996 42.1367 95.7852 42.1367C95.2201 42.1367 94.7939 41.9658 94.5068 41.624C94.2197 41.2822 94.0762 40.7969 94.0762 40.168V35.5811H92.7295V34.6035H94.0762V32.8125H95.3408ZM106.244 42C106.171 41.8542 106.112 41.5944 106.066 41.2207C105.479 41.8314 104.777 42.1367 103.961 42.1367C103.232 42.1367 102.632 41.9316 102.163 41.5215C101.698 41.1068 101.466 40.5827 101.466 39.9492C101.466 39.179 101.757 38.582 102.341 38.1582C102.929 37.7298 103.754 37.5156 104.815 37.5156H106.046V36.9346C106.046 36.4925 105.914 36.1416 105.649 35.8818C105.385 35.6175 104.995 35.4854 104.48 35.4854C104.029 35.4854 103.651 35.5993 103.346 35.8271C103.04 36.055 102.888 36.3307 102.888 36.6543H101.616C101.616 36.2852 101.746 35.9297 102.006 35.5879C102.27 35.2415 102.626 34.9681 103.072 34.7676C103.523 34.5671 104.018 34.4668 104.556 34.4668C105.408 34.4668 106.076 34.681 106.559 35.1094C107.042 35.5332 107.292 36.1188 107.311 36.8662V40.2705C107.311 40.9495 107.397 41.4896 107.57 41.8906V42H106.244ZM104.146 41.0361C104.542 41.0361 104.918 40.9336 105.273 40.7285C105.629 40.5234 105.886 40.2568 106.046 39.9287V38.4111H105.055C103.505 38.4111 102.73 38.8646 102.73 39.7715C102.73 40.168 102.863 40.4779 103.127 40.7012C103.391 40.9245 103.731 41.0361 104.146 41.0361ZM116.341 35.7383C116.149 35.7064 115.942 35.6904 115.719 35.6904C114.889 35.6904 114.326 36.0436 114.03 36.75V42H112.766V34.6035H113.996L114.017 35.458C114.431 34.7972 115.019 34.4668 115.78 34.4668C116.026 34.4668 116.213 34.4987 116.341 34.5625V35.7383ZM117.038 38.2334C117.038 37.5088 117.179 36.8571 117.462 36.2783C117.749 35.6995 118.146 35.2529 118.651 34.9385C119.162 34.624 119.743 34.4668 120.395 34.4668C121.402 34.4668 122.215 34.8154 122.835 35.5127C123.459 36.21 123.771 37.1374 123.771 38.2949V38.3838C123.771 39.1038 123.632 39.751 123.354 40.3252C123.081 40.8949 122.687 41.3392 122.172 41.6582C121.661 41.9772 121.074 42.1367 120.408 42.1367C119.406 42.1367 118.592 41.7881 117.968 41.0908C117.348 40.3936 117.038 39.4707 117.038 38.3223V38.2334ZM118.31 38.3838C118.31 39.2041 118.499 39.8626 118.877 40.3594C119.26 40.8561 119.77 41.1045 120.408 41.1045C121.051 41.1045 121.561 40.8538 121.939 40.3525C122.318 39.8467 122.507 39.1403 122.507 38.2334C122.507 37.4222 122.313 36.766 121.926 36.2646C121.543 35.7588 121.033 35.5059 120.395 35.5059C119.77 35.5059 119.267 35.7542 118.884 36.251C118.501 36.7477 118.31 37.4587 118.31 38.3838ZM131.619 38.3838C131.619 39.514 131.359 40.4232 130.84 41.1113C130.32 41.7949 129.623 42.1367 128.748 42.1367C127.814 42.1367 127.091 41.8063 126.581 41.1455L126.52 42H125.357V31.5H126.622V35.417C127.132 34.7835 127.837 34.4668 128.734 34.4668C129.632 34.4668 130.336 34.8063 130.847 35.4854C131.362 36.1644 131.619 37.0941 131.619 38.2744V38.3838ZM130.354 38.2402C130.354 37.3789 130.188 36.7135 129.855 36.2441C129.523 35.7747 129.044 35.54 128.42 35.54C127.586 35.54 126.987 35.9274 126.622 36.7021V39.9014C127.009 40.6761 127.613 41.0635 128.434 41.0635C129.04 41.0635 129.511 40.8288 129.849 40.3594C130.186 39.89 130.354 39.1836 130.354 38.2402ZM132.884 38.2334C132.884 37.5088 133.025 36.8571 133.308 36.2783C133.595 35.6995 133.991 35.2529 134.497 34.9385C135.007 34.624 135.589 34.4668 136.24 34.4668C137.247 34.4668 138.061 34.8154 138.681 35.5127C139.305 36.21 139.617 37.1374 139.617 38.2949V38.3838C139.617 39.1038 139.478 39.751 139.2 40.3252C138.927 40.8949 138.533 41.3392 138.018 41.6582C137.507 41.9772 136.919 42.1367 136.254 42.1367C135.251 42.1367 134.438 41.7881 133.813 41.0908C133.194 40.3936 132.884 39.4707 132.884 38.3223V38.2334ZM134.155 38.3838C134.155 39.2041 134.344 39.8626 134.723 40.3594C135.105 40.8561 135.616 41.1045 136.254 41.1045C136.896 41.1045 137.407 40.8538 137.785 40.3525C138.163 39.8467 138.353 39.1403 138.353 38.2334C138.353 37.4222 138.159 36.766 137.771 36.2646C137.389 35.7588 136.878 35.5059 136.24 35.5059C135.616 35.5059 135.112 35.7542 134.729 36.251C134.347 36.7477 134.155 37.4587 134.155 38.3838ZM142.919 32.8125V34.6035H144.3V35.5811H142.919V40.168C142.919 40.4642 142.98 40.6875 143.104 40.8379C143.227 40.9837 143.436 41.0566 143.732 41.0566C143.878 41.0566 144.079 41.0293 144.334 40.9746V42C144.001 42.0911 143.678 42.1367 143.363 42.1367C142.798 42.1367 142.372 41.9658 142.085 41.624C141.798 41.2822 141.654 40.7969 141.654 40.168V35.5811H140.308V34.6035H141.654V32.8125H142.919Z" fill="black"/>
<path d="M39.2393 25H16.5218C15.3812 25 14.4565 25.8954 14.4565 27V49C14.4565 50.1046 15.3812 51 16.5218 51H39.2393C40.3799 51 41.3045 50.1046 41.3045 49V27C41.3045 25.8954 40.3799 25 39.2393 25Z" fill="white" stroke="#C1C1C1" stroke-width="2"/>
<defs>
<filter id="filter0_d_8_21" x="263.514" y="10" width="24.7083" height="16.7091" filterUnits="userSpaceOnUse" color-interpolation-filters="sRGB">
<feFlood flood-opacity="0" result="BackgroundImageFix"/>
<feColorMatrix in="SourceAlpha" type="matrix" values="0 0 0 0 0 0 0 0 0 0 0 0 0 0 0 0 0 0 127 0" result="hardAlpha"/>
<feOffset/>
<feGaussianBlur stdDeviation="0.5"/>
<feColorMatrix type="matrix" values="0 0 0 0 0 0 0 0 0 0 0 0 0 0 0 0 0 0 0.5 0"/>
<feBlend mode="normal" in2="BackgroundImageFix" result="effect1_dropShadow_8_21"/>
<feBlend mode="normal" in="SourceGraphic" in2="effect1_dropShadow_8_21" result="shape"/>
</filter>
<filter id="filter1_d_8_21" x="255.486" y="10.0408" width="17.1658" height="19.2383" filterUnits="userSpaceOnUse" color-interpolation-filters="sRGB">
<feFlood flood-opacity="0" result="BackgroundImageFix"/>
<feColorMatrix in="SourceAlpha" type="matrix" values="0 0 0 0 0 0 0 0 0 0 0 0 0 0 0 0 0 0 127 0" result="hardAlpha"/>
<feOffset/>
<feGaussianBlur stdDeviation="0.5"/>
<feColorMatrix type="matrix" values="0 0 0 0 0 0 0 0 0 0 0 0 0 0 0 0 0 0 0.5 0"/>
<feBlend mode="normal" in2="BackgroundImageFix" result="effect1_dropShadow_8_21"/>
<feBlend mode="normal" in="SourceGraphic" in2="effect1_dropShadow_8_21" result="shape"/>
</filter>
<filter id="filter2_d_8_21" x="255.542" y="25.1727" width="28.8677" height="16.7091" filterUnits="userSpaceOnUse" color-interpolation-filters="sRGB">
<feFlood flood-opacity="0" result="BackgroundImageFix"/>
<feColorMatrix in="SourceAlpha" type="matrix" values="0 0 0 0 0 0 0 0 0 0 0 0 0 0 0 0 0 0 127 0" result="hardAlpha"/>
<feOffset/>
<feGaussianBlur stdDeviation="0.5"/>
<feColorMatrix type="matrix" values="0 0 0 0 0 0 0 0 0 0 0 0 0 0 0 0 0 0 0.382529 0"/>
<feBlend mode="normal" in2="BackgroundImageFix" result="effect1_dropShadow_8_21"/>
<feBlend mode="normal" in="SourceGraphic" in2="effect1_dropShadow_8_21" result="shape"/>
</filter>
</defs>
</svg>
